# xmcd
#
# Track frame offsets:
#	150
#	12776
#	26822
#	39478
#	48885
#	59496
#	69367
#	81999
#	94630
#	110113
#	121707
#	133959
#	146193
#	159151
#	170671
#	182815
#	195101
#	206948
#	217402
#	230630
#	250961
#	264466
#	286030
#	299972
#	318556
#	330076
#
# Disc length: 4616 seconds
#
# Revision: 1
# Processed by: cddbd v1.5.2PL0 Copyright (c) Steve Scherf et al.
# Submitted via: audiograbber 1.83.01
#
DISCID=8f12061a
DTITLE=Merle Haggard - Hag - The Best of Merle Haggard
DYEAR=1900
DGENRE=Country
TTITLE0=The Bottle Let Me Down
TTITLE1=Branded Man
TTITLE2=Sing Me Back Home
TTITLE3=The Legend Of Bonnie And Clyde
TTITLE4=Today I Started Loving You Again
TTITLE5=Mama Tried
TTITLE6=I'm Bringing Home Good News
TTITLE7=I Take A Lot Of Pride In What I Am
TTITLE8=Hungry Eyes
TTITLE9=Workin' Man Blues
TTITLE10=Silver Wings
TTITLE11=Okie From Muskogee
TTITLE12=The Fightin' Side Of Me
TTITLE13=Someday We'll Look Back
TTITLE14=If We Make It Through December
TTITLE15=Things Aren't Funny Anymore
TTITLE16=Honky Tonk Night Time Man
TTITLE17=Old Man From The Mountain
TTITLE18=Living With The Shades Pulled Down
TTITLE19=I Think I'll Just Stay Here And Drink
TTITLE20=Big City
TTITLE21=Pancho And Lefty With Willie Nelson
TTITLE22=I'm Leaving Now - With Jonny Cash
TTITLE23=Runaway Mama
TTITLE24=That's The News
TTITLE25=She Ain't Hooked On Me No More - With Toby Keith
EXTD=
EXTT0=
EXTT1=
EXTT2=
EXTT3=
EXTT4=
EXTT5=
EXTT6=
EXTT7=
EXTT8=
EXTT9=
EXTT10=
EXTT11=
EXTT12=
EXTT13=
EXTT14=
EXTT15=
EXTT16=
EXTT17=
EXTT18=
EXTT19=
EXTT20=
EXTT21=
EXTT22=
EXTT23=
EXTT24=
EXTT25=
PLAYORDER=
